<svg width="25" height="31" viewBox="0 0 25 31" fill="none" xmlns="http://www.w3.org/2000/svg">
<path d="M23.2917 0.083374C22.8828 0.083374 22.4907 0.245799 22.2015 0.534918C21.9124 0.824036 21.75 1.21617 21.75 1.62504V3.16671H14.0417C13.6328 3.16671 13.2407 3.32913 12.9515 3.61825C12.6624 3.90737 12.5 4.2995 12.5 4.70837V26.2917C12.5 26.7006 12.6624 27.0927 12.9515 27.3818C13.2407 27.671 13.6328 27.8334 14.0417 27.8334H21.75V29.375C21.75 29.7839 21.9124 30.176 22.2015 30.4652C22.4907 30.7543 22.8828 30.9167 23.2917 30.9167C23.7005 30.9167 24.0927 30.7543 24.3818 30.4652C24.6709 30.176 24.8333 29.7839 24.8333 29.375V1.62504C24.8333 1.21617 24.6709 0.824036 24.3818 0.534918C24.0927 0.245799 23.7005 0.083374 23.2917 0.083374V0.083374ZM21.75 24.75H15.5833V6.25004H21.75V24.75ZM7.875 0.083374C7.46612 0.083374 7.07399 0.245799 6.78487 0.534918C6.49576 0.824036 6.33333 1.21617 6.33333 1.62504V4.70837H1.70833C1.29946 4.70837 0.907327 4.8708 0.618208 5.15992C0.32909 5.44904 0.166664 5.84117 0.166664 6.25004V24.75C0.166664 25.1589 0.32909 25.551 0.618208 25.8402C0.907327 26.1293 1.29946 26.2917 1.70833 26.2917H6.33333V29.375C6.33333 29.7839 6.49576 30.176 6.78487 30.4652C7.07399 30.7543 7.46612 30.9167 7.875 30.9167C8.28387 30.9167 8.676 30.7543 8.96512 30.4652C9.25424 30.176 9.41666 29.7839 9.41666 29.375V1.62504C9.41666 1.21617 9.25424 0.824036 8.96512 0.534918C8.676 0.245799 8.28387 0.083374 7.875 0.083374V0.083374ZM6.33333 23.2084H3.25V7.79171H6.33333V23.2084Z" fill="white"/>
</svg>
