<svg width="31" height="31" viewBox="0 0 31 31" fill="none" xmlns="http://www.w3.org/2000/svg">
<path d="M9.61084 3.16671H12.8483C13.2572 3.16671 13.6493 3.00428 13.9385 2.71516C14.2276 2.42605 14.39 2.03392 14.39 1.62504C14.39 1.21617 14.2276 0.824036 13.9385 0.534918C13.6493 0.245799 13.2572 0.083374 12.8483 0.083374H9.61084C9.20197 0.083374 8.80984 0.245799 8.52072 0.534918C8.2316 0.824036 8.06918 1.21617 8.06918 1.62504C8.06918 2.03392 8.2316 2.42605 8.52072 2.71516C8.80984 3.00428 9.20197 3.16671 9.61084 3.16671ZM1.62501 14.39C2.03389 14.39 2.42601 14.2276 2.71513 13.9385C3.00425 13.6494 3.16668 13.2572 3.16668 12.8484V9.61087C3.16668 9.202 3.00425 8.80987 2.71513 8.52075C2.42601 8.23163 2.03389 8.06921 1.62501 8.06921C1.21613 8.06921 0.824006 8.23163 0.534887 8.52075C0.245769 8.80987 0.0833435 9.202 0.0833435 9.61087V12.8484C0.0833435 13.2572 0.245769 13.6494 0.534887 13.9385C0.824006 14.2276 1.21613 14.39 1.62501 14.39ZM19.2925 3.16671C19.2925 3.57558 19.4549 3.96771 19.7441 4.25683C20.0332 4.54595 20.4253 4.70837 20.8342 4.70837C21.2431 4.70837 21.6352 4.54595 21.9243 4.25683C22.2134 3.96771 22.3758 3.57558 22.3758 3.16671V1.62504C22.3758 1.21617 22.2134 0.824036 21.9243 0.534918C21.6352 0.245799 21.2431 0.083374 20.8342 0.083374H19.2925C18.8836 0.083374 18.4915 0.245799 18.2024 0.534918C17.9133 0.824036 17.7508 1.21617 17.7508 1.62504C17.7508 2.03392 17.9133 2.42605 18.2024 2.71516C18.4915 3.00428 18.8836 3.16671 19.2925 3.16671V3.16671ZM29.375 8.62421H22.3758C22.3758 8.21533 22.2134 7.8232 21.9243 7.53409C21.6352 7.24497 21.2431 7.08254 20.8342 7.08254C20.4253 7.08254 20.0332 7.24497 19.7441 7.53409C19.4549 7.8232 19.2925 8.21533 19.2925 8.62421H10.1658C9.75697 8.62421 9.36484 8.78663 9.07572 9.07575C8.7866 9.36487 8.62418 9.757 8.62418 10.1659V19.2925C8.2153 19.2925 7.82317 19.455 7.53405 19.7441C7.24494 20.0332 7.08251 20.4253 7.08251 20.8342C7.08251 21.2431 7.24494 21.6352 7.53405 21.9243C7.82317 22.2134 8.2153 22.3759 8.62418 22.3759V29.375C8.62418 29.7839 8.7866 30.176 9.07572 30.4652C9.36484 30.7543 9.75697 30.9167 10.1658 30.9167H29.375C29.7839 30.9167 30.176 30.7543 30.4651 30.4652C30.7543 30.176 30.9167 29.7839 30.9167 29.375V10.1659C30.9167 9.757 30.7543 9.36487 30.4651 9.07575C30.176 8.78663 29.7839 8.62421 29.375 8.62421V8.62421ZM27.8333 27.8334H11.7075V20.8496V11.7075H27.8333V27.8334ZM3.16668 0.083374H1.62501C1.21613 0.083374 0.824006 0.245799 0.534887 0.534918C0.245769 0.824036 0.0833435 1.21617 0.0833435 1.62504V3.16671C0.0833435 3.57558 0.245769 3.96771 0.534887 4.25683C0.824006 4.54595 1.21613 4.70837 1.62501 4.70837C2.03389 4.70837 2.42601 4.54595 2.71513 4.25683C3.00425 3.96771 3.16668 3.57558 3.16668 3.16671C3.57555 3.16671 3.96768 3.00428 4.2568 2.71516C4.54592 2.42605 4.70834 2.03392 4.70834 1.62504C4.70834 1.21617 4.54592 0.824036 4.2568 0.534918C3.96768 0.245799 3.57555 0.083374 3.16668 0.083374V0.083374ZM3.16668 19.2925C3.16668 18.8837 3.00425 18.4915 2.71513 18.2024C2.42601 17.9133 2.03389 17.7509 1.62501 17.7509C1.21613 17.7509 0.824006 17.9133 0.534887 18.2024C0.245769 18.4915 0.0833435 18.8837 0.0833435 19.2925V20.8342C0.0833435 21.2431 0.245769 21.6352 0.534887 21.9243C0.824006 22.2134 1.21613 22.3759 1.62501 22.3759H3.16668C3.57555 22.3759 3.96768 22.2134 4.2568 21.9243C4.54592 21.6352 4.70834 21.2431 4.70834 20.8342C4.70834 20.4253 4.54592 20.0332 4.2568 19.7441C3.96768 19.455 3.57555 19.2925 3.16668 19.2925Z" fill="#5956E8"/>
</svg>
