<svg width="31" height="31" viewBox="0 0 31 31" fill="none" xmlns="http://www.w3.org/2000/svg">
<path d="M29.375 25.1816V15.0683C29.792 14.8364 30.1494 14.5109 30.4192 14.1174C30.689 13.7239 30.8638 13.2731 30.9299 12.8006C30.9959 12.3281 30.9514 11.8467 30.7999 11.3943C30.6483 10.9419 30.3938 10.5309 30.0565 10.1935C29.7191 9.85613 29.3081 9.60165 28.8557 9.4501C28.4033 9.29855 27.9219 9.25404 27.4494 9.3201C26.9768 9.38615 26.5261 9.56096 26.1326 9.83076C25.7391 10.1006 25.4136 10.458 25.1817 10.875H20.125V5.81829C20.542 5.58637 20.8994 5.26085 21.1692 4.86736C21.439 4.47387 21.6138 4.02313 21.6799 3.55062C21.7459 3.0781 21.7014 2.59671 21.5499 2.14431C21.3983 1.69191 21.1438 1.28086 20.8065 0.943493C20.4691 0.606127 20.0581 0.351655 19.6057 0.2001C19.1533 0.0485458 18.6719 0.00404459 18.1994 0.0700984C17.7268 0.136152 17.2761 0.310959 16.8826 0.580762C16.4891 0.850566 16.1636 1.20801 15.9317 1.62495H5.81835C5.58643 1.20801 5.26091 0.850566 4.86742 0.580762C4.47393 0.310959 4.02319 0.136152 3.55068 0.0700984C3.07816 0.00404459 2.59677 0.0485458 2.14437 0.2001C1.69197 0.351655 1.28092 0.606127 0.943554 0.943493C0.606188 1.28086 0.351716 1.69191 0.200161 2.14431C0.0486069 2.59671 0.00410563 3.0781 0.0701594 3.55062C0.136213 4.02313 0.31102 4.47387 0.580823 4.86736C0.850627 5.26085 1.20807 5.58637 1.62501 5.81829V15.9316C1.20807 16.1635 0.850627 16.4891 0.580823 16.8825C0.31102 17.276 0.136213 17.7268 0.0701594 18.1993C0.00410563 18.6718 0.0486069 19.1532 0.200161 19.6056C0.351716 20.058 0.606188 20.469 0.943554 20.8064C1.28092 21.1438 1.69197 21.3983 2.14437 21.5498C2.59677 21.7014 3.07816 21.7459 3.55068 21.6798C4.02319 21.6138 4.47393 21.4389 4.86742 21.1691C5.26091 20.8993 5.58643 20.5419 5.81835 20.125H10.875V25.1816C10.4581 25.4135 10.1006 25.7391 9.83082 26.1325C9.56102 26.526 9.38621 26.9768 9.32016 27.4493C9.25411 27.9218 9.29861 28.4032 9.45016 28.8556C9.60172 29.308 9.85619 29.719 10.1936 30.0564C10.5309 30.3938 10.942 30.6483 11.3944 30.7998C11.8468 30.9514 12.3282 30.9959 12.8007 30.9298C13.2732 30.8638 13.7239 30.6889 14.1174 30.4191C14.5109 30.1493 14.8364 29.7919 15.0683 29.375H25.1817C25.4136 29.7919 25.7391 30.1493 26.1326 30.4191C26.5261 30.6889 26.9768 30.8638 27.4494 30.9298C27.9219 30.9959 28.4033 30.9514 28.8557 30.7998C29.3081 30.6483 29.7191 30.3938 30.0565 30.0564C30.3938 29.719 30.6483 29.308 30.7999 28.8556C30.9514 28.4032 30.9959 27.9218 30.9299 27.4493C30.8638 26.9768 30.689 26.526 30.4192 26.1325C30.1494 25.7391 29.792 25.4135 29.375 25.1816ZM9.33335 12.4166C9.3366 12.9547 9.4806 13.4826 9.75106 13.9478C10.0215 14.4129 10.409 14.7993 10.875 15.0683V17.0416H5.81835C5.55561 16.578 5.17197 16.1944 4.70835 15.9316V5.81829C5.17197 5.55554 5.55561 5.17191 5.81835 4.70829H15.9317C16.1944 5.17191 16.5781 5.55554 17.0417 5.81829V10.875H15.0683C14.725 10.2962 14.2018 9.84565 13.5784 9.59206C12.9551 9.33848 12.2659 9.29577 11.6161 9.47046C10.9662 9.64516 10.3914 10.0277 9.97919 10.5596C9.56703 11.0915 9.34022 11.7437 9.33335 12.4166V12.4166ZM17.0417 13.9583V15.9316C16.5781 16.1944 16.1944 16.578 15.9317 17.0416H13.9583V15.0683C14.422 14.8055 14.8056 14.4219 15.0683 13.9583H17.0417ZM26.2917 25.1816C25.8281 25.4444 25.4444 25.828 25.1817 26.2916H15.0683C14.8056 25.828 14.422 25.4444 13.9583 25.1816V20.125H15.9317C16.1636 20.5419 16.4891 20.8993 16.8826 21.1691C17.2761 21.4389 17.7268 21.6138 18.1994 21.6798C18.6719 21.7459 19.1533 21.7014 19.6057 21.5498C20.0581 21.3983 20.4691 21.1438 20.8065 20.8064C21.1438 20.469 21.3983 20.058 21.5499 19.6056C21.7014 19.1532 21.7459 18.6718 21.6799 18.1993C21.6138 17.7268 21.439 17.276 21.1692 16.8825C20.8994 16.4891 20.542 16.1635 20.125 15.9316V13.9583H25.1817C25.4444 14.4219 25.8281 14.8055 26.2917 15.0683V25.1816Z" fill="#5956E8"/>
</svg>
