<svg width="32" height="31" viewBox="0 0 32 31" fill="none" xmlns="http://www.w3.org/2000/svg">
<path d="M22.3333 12.4166H19.1667V9.33329C19.1667 8.92441 18.9999 8.53228 18.7029 8.24316C18.406 7.95404 18.0033 7.79162 17.5833 7.79162H9.66667C9.24674 7.79162 8.84401 7.95404 8.54708 8.24316C8.25015 8.53228 8.08333 8.92441 8.08333 9.33329V17.0416C8.08333 17.4505 8.25015 17.8426 8.54708 18.1317C8.84401 18.4209 9.24674 18.5833 9.66667 18.5833H12.8333V21.6666C12.8333 22.0755 13.0001 22.4676 13.2971 22.7567C13.594 23.0459 13.9967 23.2083 14.4167 23.2083H22.3333C22.7533 23.2083 23.156 23.0459 23.4529 22.7567C23.7499 22.4676 23.9167 22.0755 23.9167 21.6666V13.9583C23.9167 13.5494 23.7499 13.1573 23.4529 12.8682C23.156 12.579 22.7533 12.4166 22.3333 12.4166ZM12.8333 13.9583V15.5H11.25V10.875H16V12.4166H14.4167C13.9967 12.4166 13.594 12.579 13.2971 12.8682C13.0001 13.1573 12.8333 13.5494 12.8333 13.9583ZM20.75 20.125H16V15.5H20.75V20.125ZM30.25 25.1816V5.81829C30.6782 5.58637 31.0453 5.26085 31.3224 4.86736C31.5995 4.47387 31.779 4.02313 31.8469 3.55062C31.9147 3.0781 31.869 2.59671 31.7134 2.14431C31.5577 1.69191 31.2964 1.28086 30.9499 0.943493C30.6034 0.606127 30.1812 0.351655 29.7166 0.2001C29.252 0.0485458 28.7576 0.00404459 28.2723 0.0700984C27.787 0.136152 27.3241 0.310959 26.92 0.580762C26.5158 0.850566 26.1815 1.20801 25.9433 1.62495H6.05667C5.81848 1.20801 5.48417 0.850566 5.08004 0.580762C4.67591 0.310959 4.21299 0.136152 3.72771 0.0700984C3.24242 0.00404459 2.74802 0.0485458 2.28339 0.2001C1.81877 0.351655 1.39661 0.606127 1.05012 0.943493C0.703639 1.28086 0.442289 1.69191 0.286638 2.14431C0.130988 2.59671 0.0852839 3.0781 0.153123 3.55062C0.220962 4.02313 0.400493 4.47387 0.677588 4.86736C0.954684 5.26085 1.32178 5.58637 1.75 5.81829V25.1816C1.32178 25.4135 0.954684 25.7391 0.677588 26.1325C0.400493 26.526 0.220962 26.9768 0.153123 27.4493C0.0852839 27.9218 0.130988 28.4032 0.286638 28.8556C0.442289 29.308 0.703639 29.719 1.05012 30.0564C1.39661 30.3938 1.81877 30.6483 2.28339 30.7998C2.74802 30.9514 3.24242 30.9959 3.72771 30.9298C4.21299 30.8638 4.67591 30.6889 5.08004 30.4191C5.48417 30.1493 5.81848 29.7919 6.05667 29.375H25.9433C26.1815 29.7919 26.5158 30.1493 26.92 30.4191C27.3241 30.6889 27.787 30.8638 28.2723 30.9298C28.7576 30.9959 29.252 30.9514 29.7166 30.7998C30.1812 30.6483 30.6034 30.3938 30.9499 30.0564C31.2964 29.719 31.5577 29.308 31.7134 28.8556C31.869 28.4032 31.9147 27.9218 31.8469 27.4493C31.779 26.9768 31.5995 26.526 31.3224 26.1325C31.0453 25.7391 30.6782 25.4135 30.25 25.1816ZM27.0833 25.1816C26.6072 25.4444 26.2132 25.828 25.9433 26.2916H6.05667C5.78682 25.828 5.39282 25.4444 4.91667 25.1816V5.81829C5.39282 5.55554 5.78682 5.17191 6.05667 4.70829H25.9433C26.2132 5.17191 26.6072 5.55554 27.0833 5.81829V25.1816Z" fill="#5956E8"/>
</svg>
