<svg width="31" height="31" viewBox="0 0 31 31" fill="none" xmlns="http://www.w3.org/2000/svg">
<path d="M27.8333 21.9442V9.05587C28.5728 8.79824 29.2348 8.35706 29.7572 7.7737C30.2796 7.19033 30.6453 6.48388 30.82 5.72056C30.9948 4.95723 30.9729 4.16203 30.7564 3.40949C30.5398 2.65695 30.1358 1.9717 29.5821 1.41799C29.0283 0.864268 28.3431 0.460209 27.5906 0.24368C26.838 0.0271513 26.0428 0.00524286 25.2795 0.180008C24.5162 0.354774 23.8097 0.72049 23.2264 1.24288C22.643 1.76527 22.2018 2.42723 21.9442 3.16671H9.05584C8.79821 2.42723 8.35703 1.76527 7.77366 1.24288C7.1903 0.72049 6.48385 0.354774 5.72052 0.180008C4.9572 0.00524286 4.162 0.0271513 3.40946 0.24368C2.65692 0.460209 1.97167 0.864268 1.41796 1.41799C0.864238 1.9717 0.460179 2.65695 0.24365 3.40949C0.0271208 4.16203 0.00521235 4.95723 0.179978 5.72056C0.354743 6.48388 0.72046 7.19033 1.24285 7.7737C1.76524 8.35706 2.4272 8.79824 3.16667 9.05587V21.9442C2.4272 22.2018 1.76524 22.643 1.24285 23.2264C0.72046 23.8097 0.354743 24.5162 0.179978 25.2795C0.00521235 26.0428 0.0271208 26.838 0.24365 27.5906C0.460179 28.3431 0.864238 29.0284 1.41796 29.5821C1.97167 30.1358 2.65692 30.5399 3.40946 30.7564C4.162 30.9729 4.9572 30.9948 5.72052 30.8201C6.48385 30.6453 7.1903 30.2796 7.77366 29.7572C8.35703 29.2348 8.79821 28.5728 9.05584 27.8334H21.9442C22.2018 28.5728 22.643 29.2348 23.2264 29.7572C23.8097 30.2796 24.5162 30.6453 25.2795 30.8201C26.0428 30.9948 26.838 30.9729 27.5906 30.7564C28.3431 30.5399 29.0283 30.1358 29.5821 29.5821C30.1358 29.0284 30.5398 28.3431 30.7564 27.5906C30.9729 26.838 30.9948 26.0428 30.82 25.2795C30.6453 24.5162 30.2796 23.8097 29.7572 23.2264C29.2348 22.643 28.5728 22.2018 27.8333 21.9442V21.9442ZM26.2917 3.16671C26.5966 3.16671 26.8947 3.25712 27.1482 3.42652C27.4017 3.59592 27.5993 3.8367 27.716 4.1184C27.8327 4.4001 27.8632 4.71008 27.8037 5.00914C27.7442 5.30819 27.5974 5.58289 27.3818 5.79849C27.1662 6.0141 26.8915 6.16093 26.5924 6.22042C26.2934 6.2799 25.9834 6.24937 25.7017 6.13269C25.42 6.016 25.1792 5.8184 25.0098 5.56488C24.8404 5.31135 24.75 5.01328 24.75 4.70837C24.75 4.2995 24.9124 3.90737 25.2015 3.61825C25.4907 3.32913 25.8828 3.16671 26.2917 3.16671V3.16671ZM4.70834 3.16671C5.01325 3.16671 5.31132 3.25712 5.56485 3.42652C5.81837 3.59592 6.01597 3.8367 6.13266 4.1184C6.24934 4.4001 6.27987 4.71008 6.22039 5.00914C6.1609 5.30819 6.01407 5.58289 5.79846 5.79849C5.58286 6.0141 5.30816 6.16093 5.00911 6.22042C4.71005 6.2799 4.40007 6.24937 4.11837 6.13269C3.83667 6.016 3.59589 5.8184 3.42649 5.56488C3.25709 5.31135 3.16667 5.01328 3.16667 4.70837C3.16667 4.2995 3.3291 3.90737 3.61822 3.61825C3.90734 3.32913 4.29947 3.16671 4.70834 3.16671V3.16671ZM4.70834 27.8334C4.40343 27.8334 4.10536 27.743 3.85184 27.5736C3.59831 27.4042 3.40071 27.1634 3.28403 26.8817C3.16734 26.6 3.13681 26.29 3.1963 25.9909C3.25578 25.6919 3.40261 25.4172 3.61822 25.2016C3.83382 24.986 4.10852 24.8391 4.40758 24.7797C4.70663 24.7202 5.01661 24.7507 5.29831 24.8674C5.58001 24.9841 5.82079 25.1817 5.99019 25.4352C6.15959 25.6887 6.25001 25.9868 6.25001 26.2917C6.25001 26.7006 6.08758 27.0927 5.79846 27.3818C5.50935 27.6709 5.11722 27.8334 4.70834 27.8334ZM21.9442 24.75H9.05584C8.82564 24.1035 8.45443 23.5162 7.96912 23.0309C7.48381 22.5456 6.89658 22.1744 6.25001 21.9442V9.05587C6.89658 8.82567 7.48381 8.45446 7.96912 7.96915C8.45443 7.48384 8.82564 6.89661 9.05584 6.25004H21.9442C22.1744 6.89661 22.5456 7.48384 23.0309 7.96915C23.5162 8.45446 24.1034 8.82567 24.75 9.05587V21.9442C24.1034 22.1744 23.5162 22.5456 23.0309 23.0309C22.5456 23.5162 22.1744 24.1035 21.9442 24.75V24.75ZM26.2917 27.8334C25.9868 27.8334 25.6887 27.743 25.4352 27.5736C25.1816 27.4042 24.984 27.1634 24.8674 26.8817C24.7507 26.6 24.7201 26.29 24.7796 25.9909C24.8391 25.6919 24.9859 25.4172 25.2015 25.2016C25.4172 24.986 25.6919 24.8391 25.9909 24.7797C26.29 24.7202 26.5999 24.7507 26.8816 24.8674C27.1633 24.9841 27.4041 25.1817 27.5735 25.4352C27.7429 25.6887 27.8333 25.9868 27.8333 26.2917C27.8333 26.7006 27.6709 27.0927 27.3818 27.3818C27.0927 27.6709 26.7005 27.8334 26.2917 27.8334Z" fill="#5956E8"/>
</svg>
