<svg width="480" height="536" viewBox="0 0 480 536" fill="none" xmlns="http://www.w3.org/2000/svg">
<path d="M122.593 171.319C145.162 148.743 145.162 112.139 122.593 89.5624C100.024 66.9859 63.4332 66.9859 40.8644 89.5624C18.2956 112.139 18.2956 148.743 40.8644 171.319C63.4332 193.896 100.024 193.896 122.593 171.319Z" fill="white"/>
<path d="M82.4161 131.885L44.4486 122.93L45.0184 120.5L81.0477 128.997L90.1403 110.323L92.3822 111.417L82.4161 131.885Z" fill="black"/>
<path d="M273.045 69.8075L248.648 76.8125L251.568 86.9871L275.964 79.9821L273.045 69.8075Z" fill="white"/>
<path d="M246.062 70.8193L241.79 55.9357C231.649 53.6722 223.609 46.1243 220.735 36.1174C216.43 21.1174 225.127 5.40997 240.122 1.10344C255.117 -3.20725 270.819 5.49735 275.124 20.4974C277.994 30.5002 275.182 41.1687 267.787 48.4669L272.058 63.3504L246.062 70.8193ZM247.921 1.66516C245.496 1.66516 243.03 1.99803 240.584 2.70123C226.471 6.75394 218.285 21.5376 222.336 35.6555C225.081 45.2256 232.856 52.4073 242.622 54.4087L243.117 54.5085L247.206 68.7596L270.004 62.2145L265.915 47.9635L266.281 47.6139C273.502 40.7401 276.28 30.5251 273.531 20.9551C270.178 9.28377 259.497 1.66516 247.921 1.66516Z" fill="white"/>
<path d="M230.297 32.5514C227.939 26.0147 229.129 20.3974 233.829 15.8579L234.985 17.0562C230.738 21.1547 229.719 26.0396 231.861 31.9855L230.297 32.5514Z" fill="white"/>
<path d="M369.036 196.89V167.905C361.158 165.704 355.726 158.589 355.726 150.342V111.634C355.726 101.564 363.916 93.3755 373.978 93.3755H461.48C471.546 93.3755 479.732 101.568 479.732 111.634V150.342C479.732 160.412 471.542 168.6 461.48 168.6H393.781L369.036 196.89ZM373.978 95.3727C365.014 95.3727 357.722 102.667 357.722 111.634V150.342C357.722 157.923 362.88 164.431 370.263 166.162L371.033 166.341V191.577L392.874 166.607H461.48C470.444 166.607 477.735 159.313 477.735 150.346V111.638C477.735 102.671 470.444 95.3769 461.48 95.3769H373.978V95.3727Z" fill="white"/>
<path d="M387.167 140.889C382.405 140.889 378.528 136.944 378.528 132.097C378.528 127.249 382.405 123.305 387.167 123.305C391.93 123.305 395.806 127.249 395.806 132.097C395.806 136.948 391.93 140.889 387.167 140.889ZM387.167 125.302C383.507 125.302 380.525 128.352 380.525 132.097C380.525 135.842 383.503 138.892 387.167 138.892C390.832 138.892 393.81 135.846 393.81 132.097C393.81 128.348 390.828 125.302 387.167 125.302Z" fill="white"/>
<path d="M417.731 140.889C412.968 140.889 409.092 136.944 409.092 132.097C409.092 127.249 412.968 123.305 417.731 123.305C422.494 123.305 426.37 127.249 426.37 132.097C426.37 136.948 422.494 140.889 417.731 140.889ZM417.731 125.302C414.066 125.302 411.088 128.352 411.088 132.097C411.088 135.842 414.066 138.892 417.731 138.892C421.391 138.892 424.374 135.846 424.374 132.097C424.374 128.348 421.391 125.302 417.731 125.302Z" fill="white"/>
<path d="M448.295 140.889C443.532 140.889 439.656 136.944 439.656 132.097C439.656 127.249 443.532 123.305 448.295 123.305C453.057 123.305 456.934 127.249 456.934 132.097C456.934 136.948 453.057 140.889 448.295 140.889ZM448.295 125.302C444.63 125.302 441.652 128.352 441.652 132.097C441.652 135.842 444.63 138.892 448.295 138.892C451.955 138.892 454.937 135.846 454.937 132.097C454.937 128.348 451.955 125.302 448.295 125.302Z" fill="white"/>
<path d="M348.098 349.171L393.494 306.006L420.859 333.06L345.827 405.934C332.845 418.541 312.01 417.921 299.802 404.561L311.395 353.028L348.098 349.171Z" fill="#FF8F78"/>
<path d="M348.098 349.171L316.224 372.942L312.667 332.282L342.669 325.712L348.098 349.171Z" fill="#FF8F78"/>
<path d="M464.062 275.309L414.855 225.299L351.611 287.57L400.818 337.58L464.062 275.309Z" fill="#599BFF"/>
<path d="M439.834 278.41L411.376 249.488L404.148 256.604L432.606 285.526L439.834 278.41Z" fill="white"/>
<path d="M443.237 316.957C441.906 318.031 440.159 318.039 438.745 317.099C437.767 316.449 437.031 315.501 436.299 314.581C432.838 310.233 428.853 306.463 425.131 302.365C423.084 300.114 421.067 296.456 423.534 293.781C426.553 290.51 432.901 295.94 435.138 297.867C438.412 300.68 441.498 304.221 443.491 308.057C444.422 309.859 445.35 312.064 444.93 314.14C444.714 315.251 444.085 316.271 443.237 316.957Z" fill="#FF8F78"/>
<path d="M435.109 322.845C435.059 322.874 435.026 322.928 434.985 322.965C431.195 326.386 427.29 319.404 425.21 317.148C422.431 314.136 419.644 311.124 416.887 308.09C414.836 305.839 412.823 302.182 415.302 299.498C418.33 296.219 424.682 301.649 426.924 303.572C430.197 306.384 435.692 309.834 437.684 313.678C438.82 315.892 439.893 320.34 435.109 322.845Z" fill="#FF8F78"/>
<path d="M427.868 329.943C426.545 331.017 424.84 331.071 423.488 330.205C422.552 329.606 421.861 328.712 421.175 327.846C417.922 323.748 414.15 320.219 410.635 316.366C408.701 314.248 406.837 310.778 409.321 308.128C412.353 304.891 418.384 309.954 420.514 311.752C423.625 314.377 428.358 315.031 430.193 318.68C431.054 320.39 432.322 323.602 431.857 325.616C431.607 326.685 428.712 329.253 427.868 329.943Z" fill="#FF8F78"/>
<path d="M425.114 331.004C425.776 329.536 425.538 327.95 424.607 326.893C423.962 326.165 423.043 325.849 422.294 325.291C417.494 321.721 414.89 320.536 411.155 318.168C409.104 316.866 405.952 315.934 404.188 318.834C402.033 322.375 407.174 326.798 408.996 328.354C411.658 330.63 414.865 332.561 418.155 333.422C419.699 333.825 421.562 334.121 423.134 333.23C423.974 332.764 424.69 331.945 425.114 331.004Z" fill="#FF8F78"/>
<path d="M349.89 347.374L332.847 364.442L334.26 365.854L351.303 348.785L349.89 347.374Z" fill="black"/>
<path d="M420.227 334.787C417.348 334.445 406.268 327.509 403.302 323.269L404.937 322.125C407.669 326.028 418.359 332.556 420.456 332.802L420.227 334.787Z" fill="black"/>
<path d="M349.058 535.321H162.648L170.584 459.742L174.078 426.405L285.651 421.579L323.669 419.931L349.058 535.321Z" fill="#FF5970"/>
<g opacity="0.6">
<path opacity="0.6" d="M344.52 514.7C339.937 515.769 334.8 516.231 329.072 516.006C309.814 515.261 291.329 508.255 273.452 501.481C263.378 497.661 252.958 493.716 242.456 490.891C218.031 484.333 192.259 483.634 167.531 488.798L167.394 490.096C192.047 484.878 217.765 485.548 242.131 492.098C252.575 494.902 262.966 498.838 273.011 502.646C290.98 509.457 309.564 516.497 329.022 517.25C334.858 517.471 340.099 516.997 344.787 515.906L344.52 514.7Z" fill="white"/>
<path opacity="0.6" d="M314.951 474.014C320.35 474.476 325.79 473.781 331.056 473.107C332.441 472.933 333.847 472.758 335.257 472.596L334.987 471.368C333.614 471.526 332.246 471.693 330.898 471.863C325.699 472.525 320.321 473.211 315.055 472.762C307.139 472.088 297.697 467.553 295.672 459.197C293.962 452.145 298.192 445.042 303.146 441.131C308.707 436.737 315.749 434.802 322.533 433.367C323.839 433.088 325.154 432.871 326.464 432.626L326.194 431.407C324.888 431.652 323.577 431.869 322.275 432.147C315.346 433.616 308.137 435.601 302.372 440.157C297.111 444.314 292.619 451.903 294.461 459.493C296.645 468.505 306.324 473.278 314.951 474.014Z" fill="white"/>
</g>
<path opacity="0.2" d="M285.651 421.579L170.584 459.742L174.078 426.405L285.651 421.579Z" fill="black"/>
<path d="M253.76 423.766L251.775 423.983L256.925 471.005L258.91 470.787L253.76 423.766Z" fill="black"/>
<path d="M316.224 372.942L323.661 419.939L174.082 426.393L156.717 285.438L178.953 243.679L242.817 235.312L310.296 248.839C319.589 250.695 326.947 257.843 329.072 267.08L342.674 325.711L312.671 332.281L316.224 372.942Z" fill="#FFD966"/>
<path d="M309.914 289.442L307.925 289.616L311.671 332.381L313.66 332.206L309.914 289.442Z" fill="black"/>
<path d="M323.608 418.958L222.163 422.837L222.239 424.833L323.684 420.954L323.608 418.958Z" fill="black"/>
<path d="M165.06 312.609L178.949 243.679L164.865 245.514C149.392 247.545 135.329 255.505 125.612 267.717L91.0678 311.169L132.837 344.311L165.06 312.609Z" fill="#FFD966"/>
<path d="M190.887 425.174L173.038 425.656L193.324 415.995C193.324 415.995 202.733 427.337 206.343 426.372C209.974 425.407 205.378 414.064 197.899 405.114L188.703 399.355C186.523 397.99 183.786 397.899 181.519 399.114L150.086 415.991L106.142 370.583L132.841 344.311L91.072 311.169L61.2486 348.688C51.4739 360.455 51.2243 377.481 60.6497 389.519C81.996 416.823 104.965 440.44 139.467 452.71C143.485 454.142 147.89 454.121 151.929 452.71C157.108 450.875 164.449 448.4 168.929 447.397C168.929 447.397 179.727 449.814 184.635 451.262C193.519 453.909 187.996 445.695 178.587 438.934L187.53 436.537C187.53 436.537 202.017 445.466 206.114 444.73C210.207 444.014 201.514 432.422 190.887 425.174Z" fill="#FF8F78"/>
<path d="M204.675 416.074L199.779 409.708C197.941 407.319 194.875 406.287 191.964 407.086L171.915 412.583L171.404 410.719L191.452 405.222C195.121 404.219 198.989 405.513 201.31 408.53L206.206 414.896L204.675 416.074Z" fill="black"/>
<path d="M186.923 447.422L179.814 441.276C178.745 440.348 177.431 439.77 176.021 439.608L162.531 438.047L162.752 436.125L176.241 437.685C178.038 437.893 179.71 438.63 181.074 439.812L188.183 445.957L186.923 447.422Z" fill="black"/>
<path d="M89.9068 365.704L89.445 367.647L105.919 371.565L106.381 369.622L89.9068 365.704Z" fill="black"/>
<path d="M203.248 438.372L192.671 428.224C191.298 426.905 189.406 426.164 187.517 426.23L173.063 426.622L173.009 424.691L187.463 424.3C189.876 424.2 192.263 425.157 194.006 426.83L204.584 436.978L203.248 438.372Z" fill="black"/>
<path d="M174.373 300.76L146.918 327.383L148.308 328.817L175.763 302.194L174.373 300.76Z" fill="black"/>
<path d="M257.737 186.966C294.569 189.292 287.32 141.742 245.459 147.883C245.459 147.883 236.886 132.434 213.086 143.697C191.956 153.692 173.23 215.419 173.23 215.419L218.439 224.352L257.737 186.966Z" fill="black"/>
<path d="M251.748 199.84V242.373C251.748 252.467 243.583 260.652 233.492 260.652C223.401 260.652 215.219 252.467 215.219 242.373V199.84H251.748Z" fill="#FF8F78"/>
<path d="M251.748 219.276V236.098C238.695 232.986 229.744 223.025 222.548 210.172L251.748 219.276Z" fill="black"/>
<path d="M255.009 183.051C267.741 190.761 280.14 212.414 278.464 230.181L245.317 225.317L255.009 183.051Z" fill="black"/>
<path d="M265.47 203.119C265.079 209.864 263.54 215.602 259.721 217.753C243.94 226.632 218.289 209.897 218.289 209.897L215.19 190.046L211.933 167.24L233.205 158.531C243.899 155.664 252.313 157.811 258.453 164.414C261.868 168.118 262.691 172.27 263.469 177.242C264.101 181.32 264.954 187.104 265.341 193.041C265.57 196.445 265.64 199.89 265.47 203.119Z" fill="#FF8F78"/>
<path d="M219.683 193.99C221.496 174.463 243.387 163.861 259.002 164.419C247.846 151.865 236.071 153.451 226.932 151.865L202.113 167.206L219.683 193.99Z" fill="black"/>
<path d="M220.492 201.975C224.549 199.313 225.165 193.081 221.87 188.057C218.574 183.032 212.614 181.118 208.558 183.78C204.501 186.443 203.884 192.674 207.18 197.699C210.476 202.723 216.436 204.638 220.492 201.975Z" fill="#FF8F78"/>
<path d="M215.868 194.86C215.186 191.726 213.456 190.041 210.428 189.559L210.69 187.915C214.383 188.502 216.671 190.719 217.499 194.506L215.868 194.86Z" fill="black"/>
<path d="M244.132 188.959C244.381 190.432 243.591 191.797 242.372 192.001C241.15 192.209 239.96 191.181 239.71 189.704C239.461 188.227 240.251 186.866 241.47 186.663C242.689 186.459 243.882 187.482 244.132 188.959Z" fill="black"/>
<path d="M259.726 187.886C260.013 189.355 259.26 190.736 258.045 190.973C256.831 191.211 255.612 190.216 255.325 188.747C255.038 187.279 255.791 185.897 257.005 185.66C258.22 185.423 259.434 186.417 259.726 187.886Z" fill="black"/>
<path d="M251.619 200.847L251.328 199.208C251.619 199.154 251.931 199.12 252.247 199.087C253.981 198.892 254.302 198.696 254.244 197.851C254.173 196.79 253.233 195.546 252.476 194.548C252.305 194.323 252.147 194.111 251.997 193.907L253.345 192.933C253.486 193.129 253.64 193.333 253.803 193.545C254.693 194.722 255.799 196.187 255.903 197.743C256.074 200.331 253.794 200.589 252.43 200.739C252.155 200.768 251.881 200.801 251.619 200.847Z" fill="black"/>
<path d="M248.869 203.46C250.558 205.416 250.858 207.925 249.539 209.069C248.216 210.213 245.779 209.556 244.086 207.6C242.397 205.645 242.098 203.136 243.416 201.992C244.739 200.847 247.181 201.505 248.869 203.46Z" fill="#F4F4F4"/>
<path d="M245.288 179.585C245.571 181.262 244.319 181.283 240.318 182.568C237.414 183.5 235.114 184.033 234.769 182.96C234.424 181.886 236.499 180.259 239.407 179.327C242.306 178.395 244.885 177.213 245.288 179.585Z" fill="black"/>
<path d="M254.177 179.24C253.932 180.862 255.105 180.9 258.869 182.194C261.602 183.134 263.76 183.679 264.068 182.643C264.376 181.607 262.413 180.001 259.684 179.061C256.951 178.12 254.526 176.943 254.177 179.24Z" fill="black"/>
<path opacity="0.4" d="M236.994 202.63C238.97 200.652 238.97 197.446 236.994 195.468C235.017 193.491 231.812 193.491 229.835 195.468C227.858 197.446 227.858 200.652 229.835 202.63C231.812 204.607 235.017 204.607 236.994 202.63Z" fill="#FF5970"/>
<path opacity="0.4" d="M265.47 203.119C265.312 203.148 265.166 203.148 265.008 203.148C262.213 203.148 259.934 200.885 259.934 198.088C259.934 195.292 262.209 193.029 265.008 193.029C265.125 193.029 265.224 193.029 265.341 193.041C265.57 196.445 265.64 199.89 265.47 203.119Z" fill="#FF5970"/>
</svg>
