<svg width="31" height="19" viewBox="0 0 31 19" fill="none" xmlns="http://www.w3.org/2000/svg">
<path d="M6.69708 5.96958C6.8404 6.11408 7.01091 6.22877 7.19878 6.30704C7.38665 6.38531 7.58815 6.42561 7.79167 6.42561C7.99519 6.42561 8.19669 6.38531 8.38456 6.30704C8.57242 6.22877 8.74293 6.11408 8.88625 5.96958C9.03075 5.82627 9.14544 5.65576 9.22371 5.46789C9.30198 5.28002 9.34227 5.07852 9.34227 4.875C9.34227 4.67148 9.30198 4.46998 9.22371 4.28211C9.14544 4.09424 9.03075 3.92373 8.88625 3.78042L5.80292 0.697083C5.6563 0.556729 5.48341 0.446708 5.29417 0.373333C4.91883 0.219139 4.49784 0.219139 4.1225 0.373333C3.93326 0.446708 3.76037 0.556729 3.61375 0.697083L0.530418 3.78042C0.240116 4.07072 0.0770264 4.46445 0.0770264 4.875C0.0770264 5.28555 0.240116 5.67928 0.530418 5.96958C0.820719 6.25988 1.21445 6.42297 1.625 6.42297C2.03555 6.42297 2.42928 6.25988 2.71958 5.96958L3.16667 5.50708V13.4929L2.71958 13.0304C2.42928 12.7401 2.03555 12.577 1.625 12.577C1.21445 12.577 0.820719 12.7401 0.530418 13.0304C0.240116 13.3207 0.0770264 13.7145 0.0770264 14.125C0.0770264 14.5355 0.240116 14.9293 0.530418 15.2196L3.61375 18.3029C3.76037 18.4433 3.93326 18.5533 4.1225 18.6267C4.30704 18.7082 4.50658 18.7504 4.70833 18.7504C4.91009 18.7504 5.10963 18.7082 5.29417 18.6267C5.48341 18.5533 5.6563 18.4433 5.80292 18.3029L8.88625 15.2196C9.02999 15.0758 9.14402 14.9052 9.22181 14.7174C9.2996 14.5296 9.33964 14.3283 9.33964 14.125C9.33964 13.9217 9.2996 13.7204 9.22181 13.5326C9.14402 13.3448 9.02999 13.1742 8.88625 13.0304C8.74251 12.8867 8.57186 12.7727 8.38405 12.6949C8.19624 12.6171 7.99495 12.577 7.79167 12.577C7.58839 12.577 7.38709 12.6171 7.19928 12.6949C7.01148 12.7727 6.84083 12.8867 6.69708 13.0304L6.25 13.4929V5.50708L6.69708 5.96958ZM13.9583 3.33333H29.375C29.7839 3.33333 30.176 3.17091 30.4651 2.88179C30.7542 2.59267 30.9167 2.20054 30.9167 1.79167C30.9167 1.38279 30.7542 0.990663 30.4651 0.701544C30.176 0.412425 29.7839 0.25 29.375 0.25H13.9583C13.5495 0.25 13.1573 0.412425 12.8682 0.701544C12.5791 0.990663 12.4167 1.38279 12.4167 1.79167C12.4167 2.20054 12.5791 2.59267 12.8682 2.88179C13.1573 3.17091 13.5495 3.33333 13.9583 3.33333V3.33333ZM29.375 7.95833H13.9583C13.5495 7.95833 13.1573 8.12076 12.8682 8.40988C12.5791 8.699 12.4167 9.09112 12.4167 9.5C12.4167 9.90888 12.5791 10.301 12.8682 10.5901C13.1573 10.8792 13.5495 11.0417 13.9583 11.0417H29.375C29.7839 11.0417 30.176 10.8792 30.4651 10.5901C30.7542 10.301 30.9167 9.90888 30.9167 9.5C30.9167 9.09112 30.7542 8.699 30.4651 8.40988C30.176 8.12076 29.7839 7.95833 29.375 7.95833ZM29.375 15.6667H13.9583C13.5495 15.6667 13.1573 15.8291 12.8682 16.1182C12.5791 16.4073 12.4167 16.7995 12.4167 17.2083C12.4167 17.6172 12.5791 18.0093 12.8682 18.2985C13.1573 18.5876 13.5495 18.75 13.9583 18.75H29.375C29.7839 18.75 30.176 18.5876 30.4651 18.2985C30.7542 18.0093 30.9167 17.6172 30.9167 17.2083C30.9167 16.7995 30.7542 16.4073 30.4651 16.1182C30.176 15.8291 29.7839 15.6667 29.375 15.6667Z" fill="#5956E8"/>
</svg>
